<svg width="742" height="332" viewBox="0 0 742 332" fill="none" xmlns="http://www.w3.org/2000/svg">
<path d="M125.081 76.5C133.934 61.1667 156.066 61.1667 164.919 76.5L250.655 225C259.508 240.333 248.442 259.5 230.737 259.5H59.2635C41.5581 259.5 30.4922 240.333 39.3449 225L125.081 76.5Z" fill="#2EA7FF"/>
<g filter="url(#filter0_d)">
<path d="M383.571 150H367.956V128.859H313.062V150H297.447V106.938C297.447 100.652 298.528 94.8662 300.69 89.5811C302.853 84.2959 305.855 79.7515 309.699 75.9478C313.543 72.144 318.087 69.1812 323.333 67.0591C328.578 64.937 334.303 63.876 340.509 63.876H375.704C376.785 63.876 377.806 64.0762 378.767 64.4766C379.728 64.877 380.568 65.4375 381.289 66.1582C382.01 66.8789 382.57 67.7197 382.971 68.6807C383.371 69.6416 383.571 70.6626 383.571 71.7437V150ZM313.062 113.244H367.956V79.4912H340.509C340.029 79.4912 339.008 79.5713 337.446 79.7314C335.925 79.8516 334.143 80.1919 332.101 80.7524C330.099 81.313 327.977 82.1738 325.735 83.335C323.493 84.4961 321.431 86.0977 319.549 88.1396C317.667 90.1816 316.105 92.7441 314.864 95.8271C313.663 98.8701 313.062 102.574 313.062 106.938V113.244ZM462.757 89.8813C463.398 91.3628 463.558 92.8643 463.238 94.3857C462.958 95.9072 462.277 97.2285 461.196 98.3496L425.101 134.385H462.637V150H406.302C404.701 150 403.239 149.56 401.918 148.679C400.637 147.758 399.676 146.597 399.035 145.195C398.435 143.714 398.274 142.212 398.555 140.691C398.875 139.129 399.616 137.768 400.777 136.607L436.692 100.692H399.155V85.0767H455.61C457.172 85.0767 458.593 85.4971 459.875 86.3379C461.196 87.1787 462.157 88.3599 462.757 89.8813ZM492.335 71.7437H476.72V57.6299H492.335V71.7437ZM492.335 150H476.72V85.0767H492.335V150ZM570.08 89.8813C570.72 91.3628 570.88 92.8643 570.56 94.3857C570.28 95.9072 569.599 97.2285 568.518 98.3496L532.423 134.385H569.96V150H513.625C512.023 150 510.562 149.56 509.24 148.679C507.959 147.758 506.998 146.597 506.357 145.195C505.757 143.714 505.597 142.212 505.877 140.691C506.197 139.129 506.938 137.768 508.099 136.607L544.014 100.692H506.478V85.0767H562.933C564.494 85.0767 565.916 85.4971 567.197 86.3379C568.518 87.1787 569.479 88.3599 570.08 89.8813ZM381.83 230.655C381.83 233.738 381.429 236.521 380.628 239.003C379.868 241.446 378.847 243.608 377.565 245.49C376.284 247.372 374.783 248.973 373.061 250.294C371.339 251.616 369.558 252.697 367.716 253.538C365.874 254.378 363.992 254.999 362.07 255.399C360.188 255.8 358.407 256 356.725 256H296.486V240.385H356.725C359.728 240.385 362.05 239.504 363.692 237.742C365.374 235.98 366.214 233.618 366.214 230.655C366.214 229.214 365.994 227.893 365.554 226.691C365.113 225.49 364.473 224.449 363.632 223.568C362.831 222.688 361.83 222.007 360.629 221.526C359.468 221.046 358.167 220.806 356.725 220.806H320.81C318.288 220.806 315.565 220.365 312.642 219.484C309.719 218.563 306.997 217.102 304.474 215.1C301.992 213.098 299.91 210.476 298.228 207.232C296.586 203.989 295.766 200.025 295.766 195.341C295.766 190.656 296.586 186.712 298.228 183.509C299.91 180.266 301.992 177.644 304.474 175.642C306.997 173.6 309.719 172.138 312.642 171.257C315.565 170.336 318.288 169.876 320.81 169.876H373.962V185.491H320.81C317.847 185.491 315.525 186.392 313.843 188.194C312.202 189.996 311.381 192.378 311.381 195.341C311.381 198.344 312.202 200.726 313.843 202.488C315.525 204.209 317.847 205.07 320.81 205.07H356.725H356.845C358.527 205.11 360.309 205.351 362.19 205.791C364.072 206.191 365.934 206.832 367.776 207.713C369.658 208.594 371.439 209.715 373.121 211.076C374.803 212.397 376.284 213.999 377.565 215.881C378.887 217.763 379.928 219.925 380.688 222.367C381.449 224.81 381.83 227.572 381.83 230.655ZM450.565 206.692H423.299V256H407.503V206.692H387.204V191.077H407.503V169.876H423.299V191.077H450.565V206.692ZM525.367 234.499C525.367 236.661 524.987 239.003 524.226 241.526C523.465 244.008 522.224 246.331 520.502 248.493C518.821 250.615 516.599 252.396 513.836 253.838C511.113 255.279 507.79 256 503.866 256H475.699C473.537 256 471.194 255.62 468.672 254.859C466.189 254.098 463.867 252.877 461.705 251.195C459.583 249.474 457.801 247.251 456.36 244.529C454.919 241.766 454.198 238.423 454.198 234.499C454.198 232.337 454.578 229.995 455.339 227.472C456.1 224.95 457.321 222.627 459.002 220.505C460.724 218.343 462.946 216.542 465.669 215.1C468.432 213.659 471.775 212.938 475.699 212.938H503.866V227.833H475.699C473.577 227.833 471.935 228.493 470.774 229.814C469.613 231.096 469.032 232.697 469.032 234.619C469.032 236.661 469.693 238.263 471.014 239.424C472.376 240.545 473.977 241.105 475.819 241.105H503.866C505.988 241.105 507.63 240.465 508.791 239.184C509.952 237.902 510.533 236.301 510.533 234.379V212.578C510.533 210.536 509.892 208.914 508.611 207.713C507.37 206.512 505.788 205.911 503.866 205.911H469.573V191.077H503.866C506.028 191.077 508.351 191.457 510.833 192.218C513.356 192.979 515.678 194.22 517.8 195.941C519.962 197.623 521.764 199.845 523.205 202.608C524.647 205.331 525.367 208.654 525.367 212.578V234.499ZM596.746 206.692H561.611C559.489 206.692 557.888 207.232 556.807 208.313C555.726 209.354 555.185 210.896 555.185 212.938V256H539.57V212.938C539.57 210.255 539.91 207.853 540.591 205.731C541.272 203.609 542.172 201.747 543.294 200.146C544.455 198.504 545.776 197.123 547.257 196.001C548.739 194.84 550.28 193.899 551.882 193.179C553.523 192.458 555.165 191.938 556.807 191.617C558.488 191.257 560.05 191.077 561.491 191.077H596.746V206.692ZM684.58 256H662.058L630.587 225.61C628.826 224.009 628.005 222.007 628.125 219.604C628.205 218.483 628.485 217.442 628.966 216.481C629.486 215.48 630.187 214.64 631.068 213.959L659.596 190.957H684.58L647.824 220.565L684.58 256ZM624.161 256H608.546V163.63H624.161V256Z" fill="url(#paint0_linear)"/>
</g>
<defs>
<filter id="filter0_d" x="238.766" y="0.629883" width="502.815" height="312.37" filterUnits="userSpaceOnUse" color-interpolation-filters="sRGB">
<feFlood flood-opacity="0" result="BackgroundImageFix"/>
<feColorMatrix in="SourceAlpha" type="matrix" values="0 0 0 0 0 0 0 0 0 0 0 0 0 0 0 0 0 0 127 0"/>
<feOffset/>
<feGaussianBlur stdDeviation="28.5"/>
<feColorMatrix type="matrix" values="0 0 0 0 0 0 0 0 0 0 0 0 0 0 0 0 0 0 0.25 0"/>
<feBlend mode="normal" in2="BackgroundImageFix" result="effect1_dropShadow"/>
<feBlend mode="normal" in="SourceGraphic" in2="effect1_dropShadow" result="shape"/>
</filter>
<linearGradient id="paint0_linear" x1="247.5" y1="-40.5" x2="700.5" y2="391" gradientUnits="userSpaceOnUse">
<stop stop-color="#F9F7F7"/>
<stop offset="1" stop-color="white" stop-opacity="0.93"/>
</linearGradient>
</defs>
</svg>
